<svg xmlns="http://www.w3.org/2000/svg" width="800" height="88.836" viewBox="0 0 800 88.836">
  <g id="error_under_maintenance_1_1_" data-name="error_under_maintenance (1) (1)" transform="translate(0 247.836)">
    <path id="Path_1915" data-name="Path 1915" d="M332.7-247.4c-.4.4-.7,2.2-.7,4v3.3l-26.7.3-26.8.3-4.7,2.7a19.983,19.983,0,0,0-9.3,12l-.7,2.7-13.8.3c-12.9.3-14,.5-16.3,2.6a11.881,11.881,0,0,0-3.1,4.8L230-212H115c-76,0-115,.3-115,1s39,1,115,1H230v14H115c-76,0-115,.3-115,1s39,1,115,1H230l.6,2.5c.3,1.4,2,3.6,3.6,5,2.8,2.4,3.5,2.5,16.2,2.5h13.3l1.3,4.2c1.5,5.3,7.6,11.3,12.7,12.7,2.2.6,14.6,1.1,29.1,1.1H332v2.9c0,3.6,1.2,4.1,10.5,4.1,10.7,0,10.5.2,10.5-9.5v-8.3l11.9-.4c10.2-.3,12.2-.6,14.1-2.3,3.3-3,4.2-6.2,2.9-10.2-1.7-5.1-5-6.3-17.9-6.3H352.9l.3-6.8.3-6.7,12.1-.5c7.9-.3,12.7-1,13.7-1.8,2.4-2,3.9-7.5,2.8-10.3-1.7-4.7-3.7-5.4-16.5-5.9l-12.1-.5L353-238l-.5-9.5-9.5-.3C337.7-247.9,333.1-247.8,332.7-247.4ZM348-204v39H337v-78h11Zm-16.2,1.2-.3,31.3H305.3c-24.9,0-26.3-.1-28.9-2.1-6.8-5-6.9-5.4-6.9-29.2,0-19.9.2-21.9,2-24.6,4.3-6.4,5.3-6.6,34.3-6.6H332Zm46-21.2a6.358,6.358,0,0,1-.5,10c-2.4,1.8-3.7,2-13.2,1.8l-10.6-.3-.3-6.8-.3-6.7h11.4C374.3-226,375.9-225.8,377.8-224Zm-114,21.2.3,13.8H251.7c-16.3,0-16.1.1-16.5-12.9-.4-9.6-.3-10.1,2.2-12.6s2.9-2.6,14.3-2.3l11.8.3Zm114.3,11.7c2.5,3,2.4,6.6-.1,9.1-1.8,1.8-3.3,2-13.5,2H353v-6.3c0-3.5.3-6.7.7-7.1.5-.4,5.7-.6,11.6-.4C375.3-193.5,376.3-193.3,378.1-191.1Z" fill="#dc1736"/>
    <path id="Path_1916" data-name="Path 1916" d="M447.7-247.4c-.4.4-.7,20.2-.7,44,0,38.5.2,43.3,1.6,43.8a48.85,48.85,0,0,0,8.9.6c9.3,0,10.5-.5,10.5-4.1V-166h25.1c17,0,26.5-.4,29.3-1.2,5.3-1.6,11.2-7.6,12.6-12.7l1.1-4.1h13.4c12.8,0,13.5-.1,16.3-2.5,1.6-1.4,3.3-3.6,3.6-5l.6-2.5H685c76,0,115-.3,115-1s-39-1-115-1H570v-14H685c76,0,115-.3,115-1s-39-1-114.9-1H570.2l-1.2-3.1c-2.4-5.7-5.9-6.9-20-6.9H536.5l-2.7-5.8c-2.9-6-6.8-9.5-12.9-11.2-1.9-.6-14.5-1-28.1-1H468.1l-.3-3.8-.3-3.7-9.5-.3C452.7-247.9,448.1-247.8,447.7-247.4ZM463-204v39H452v-78h11Zm60.8-28c6.1,3.7,7.2,8,7.2,28.6,0,10.9-.5,19.5-1.1,21.5a15.423,15.423,0,0,1-9.8,9.8c-4.2,1.2-30.4,1.5-43.8.4l-8.3-.6V-234h26.3C518.8-234,520.7-233.9,523.8-232Zm38,16.6c2,1.4,2.2,2.3,2.2,12.1,0,14.5.2,14.3-15.7,14.3H536v-28h11.8C556.8-217,560.1-216.6,561.8-215.4Z" fill="#043970"/>
  </g>
</svg>
